<svg width="44" height="55" viewBox="0 0 44 55" fill="none" xmlns="http://www.w3.org/2000/svg">
<path d="M1.59924 49.1488V49.4513H1.90179H5.35953H5.66208V49.1488V7.74243V7.43988H5.35953H1.90179H1.59924V7.74243V49.1488Z" fill="#5D5FEF" stroke="#5D5FEF" stroke-width="0.605103"/>
<path d="M20.8761 9.12567V9.34178H21.0922H24.2041H24.4202V9.12567V1V0.783892H24.2041H21.0922H20.8761V1V9.12567Z" fill="#5D5FEF" stroke="#5D5FEF" stroke-width="0.432217"/>
<path d="M20.8761 54.1627V54.3788H21.0922H24.2041H24.4202V54.1627V46.037V45.8209H24.2041H21.0922H20.8761V46.037V54.1627Z" fill="#5D5FEF" stroke="#5D5FEF" stroke-width="0.432217"/>
<path d="M29.2611 9.12567V9.34178H29.4772H32.5891H32.8052V9.12567V1V0.783892H32.5891H29.4772H29.2611V1V9.12567Z" fill="#5D5FEF" stroke="#5D5FEF" stroke-width="0.432217"/>
<path d="M29.2611 54.1627V54.3788H29.4772H32.5891H32.8052V54.1627V46.037V45.8209H32.5891H29.4772H29.2611V46.037V54.1627Z" fill="#5D5FEF" stroke="#5D5FEF" stroke-width="0.432217"/>
<path d="M42.218 47.3336V47.546L42.0182 47.6181C38.6198 48.8448 34.1657 49.4514 28.6697 49.4514C23.0714 49.4514 18.7758 48.4976 15.824 46.5487C12.8512 44.586 11.3673 41.6774 11.3673 37.868C11.3673 35.8337 11.8267 34.0491 12.7564 32.5255C13.6912 30.9503 15.2524 29.6204 17.4084 28.5235C19.5222 27.381 22.4566 26.4234 26.1976 25.6431C29.4967 24.9097 32.0786 24.2 33.949 23.5153C35.8094 22.8341 37.0958 22.0178 37.8504 21.0867C38.5569 20.1135 38.9213 18.864 38.9213 17.3161C38.9213 14.5599 37.8364 12.6157 35.6774 11.4218L35.6774 11.4218L35.6759 11.421C33.427 10.1607 30.1814 9.51461 25.9073 9.51461C21.6826 9.51461 17.8893 10.0517 14.524 11.1212L14.1298 11.2465V10.8329V7.65608V7.42943L14.3473 7.36572C15.5468 7.0144 17.2621 6.66625 19.4857 6.31981C21.7225 5.97134 24.1229 5.79755 26.6864 5.79755C32.286 5.79755 36.4977 6.83813 39.2667 8.97228C41.9865 11.0617 43.3513 13.8521 43.3513 17.3161C43.3513 19.3062 42.9161 21.0473 42.0337 22.5279L42.0338 22.528L42.0299 22.5342C41.0942 24.0217 39.5795 25.2648 37.5152 26.2754L37.5153 26.2755L37.5081 26.2788C35.4019 27.2427 32.5917 28.0911 29.0862 28.8282L29.0821 28.829C25.7854 29.4756 23.1854 30.1844 21.2743 30.9523L21.2743 30.9524L21.2666 30.9553C19.3121 31.6794 17.9275 32.5831 17.0771 33.6482C16.2329 34.7056 15.7974 36.103 15.7974 37.868C15.7974 40.7603 16.8873 42.7658 19.0412 43.9568C21.2416 45.1736 24.5335 45.7992 28.9531 45.7992C33.6475 45.7992 37.9357 45.1547 41.8204 43.8695L42.218 43.738V44.1568V47.3336Z" fill="#5D5FEF" stroke="#5D5FEF" stroke-width="0.605103"/>
<circle cx="3.63065" cy="6.1001" r="3.63062" fill="#5D5FEF"/>
<circle cx="3.63065" cy="50.5321" r="3.63062" fill="#5D5FEF"/>
</svg>
